<?xml version="1.0" encoding="UTF-8" standalone="no"?>
<!-- Created with Inkscape (http://www.inkscape.org/) -->

<svg
   width="352.49039mm"
   height="146.77515mm"
   viewBox="0 0 352.49039 146.77515"
   version="1.1"
   id="svg5"
   inkscape:version="1.1 (c4e8f9e, 2021-05-24)"
   sodipodi:docname="drawing.svg"
   xmlns:inkscape="http://www.inkscape.org/namespaces/inkscape"
   xmlns:sodipodi="http://sodipodi.sourceforge.net/DTD/sodipodi-0.dtd"
   xmlns="http://www.w3.org/2000/svg"
   xmlns:svg="http://www.w3.org/2000/svg">
  <sodipodi:namedview
     id="namedview7"
     pagecolor="#ffffff"
     bordercolor="#666666"
     borderopacity="1.0"
     inkscape:pageshadow="2"
     inkscape:pageopacity="0.0"
     inkscape:pagecheckerboard="0"
     inkscape:document-units="mm"
     showgrid="false"
     inkscape:zoom="0.66770989"
     inkscape:cx="515.94264"
     inkscape:cy="232.13674"
     inkscape:window-width="1440"
     inkscape:window-height="900"
     inkscape:window-x="0"
     inkscape:window-y="0"
     inkscape:window-maximized="0"
     inkscape:current-layer="layer2" />
  <defs
     id="defs2" />
  <g
     inkscape:groupmode="layer"
     id="layer2"
     inkscape:label="Layer 2"
     transform="translate(69.506149,-82.103234)">
    <path
       style="fill:none;stroke:#000000;stroke-width:0.264583px;stroke-linecap:butt;stroke-linejoin:miter;stroke-opacity:1"
       d="M 23.073805,100.67723 V 209.41019 H 227.77353"
       id="path276" />
    <path
       style="fill:#2f56c2"
       id="path380"
       sodipodi:type="arc"
       sodipodi:cx="95.048859"
       sodipodi:cy="108.8212"
       sodipodi:rx="9.9048243"
       sodipodi:ry="9.9048243"
       sodipodi:start="0"
       sodipodi:end="6.2828886"
       sodipodi:arc-type="slice"
       d="m 104.95368,108.8212 a 9.9048243,9.9048243 0 0 1 -9.904087,9.90482 9.9048243,9.9048243 0 0 1 -9.905559,-9.90335 9.9048243,9.9048243 0 0 1 9.902621,-9.906297 9.9048243,9.9048243 0 0 1 9.907025,9.901887 l -9.904821,0.003 z" />
    <path
       style="fill:#2f56c2"
       id="path382"
       sodipodi:type="arc"
       sodipodi:cx="144.79308"
       sodipodi:cy="136.33459"
       sodipodi:rx="11.225469"
       sodipodi:ry="11.445576"
       sodipodi:start="0"
       sodipodi:end="6.2828886"
       sodipodi:arc-type="slice"
       d="m 156.01854,136.33459 a 11.225469,11.445576 0 0 1 -11.22463,11.44558 11.225469,11.445576 0 0 1 -11.2263,-11.44388 11.225469,11.445576 0 0 1 11.22297,-11.44727 11.225469,11.445576 0 0 1 11.22796,11.44218 l -11.22546,0.003 z" />
    <path
       style="fill:#2f56c2"
       id="path384"
       sodipodi:type="arc"
       sodipodi:cx="96.809723"
       sodipodi:cy="136.33459"
       sodipodi:rx="5.0624661"
       sodipodi:ry="4.8423586"
       sodipodi:start="0"
       sodipodi:end="6.2828886"
       sodipodi:arc-type="slice"
       d="m 101.87219,136.33459 a 5.0624661,4.8423586 0 0 1 -5.062092,4.84236 5.0624661,4.8423586 0 0 1 -5.062841,-4.84164 5.0624661,4.8423586 0 0 1 5.061339,-4.84307 5.0624661,4.8423586 0 0 1 5.063594,4.84092 l -5.062467,0.001 z" />
    <path
       style="fill:#2f56c2"
       id="path386"
       sodipodi:type="arc"
       sodipodi:cx="173.18692"
       sodipodi:cy="173.75282"
       sodipodi:rx="4.8423586"
       sodipodi:ry="4.8423586"
       sodipodi:start="0"
       sodipodi:end="6.2828886"
       sodipodi:arc-type="slice"
       d="m 178.02928,173.75282 a 4.8423586,4.8423586 0 0 1 -4.842,4.84236 4.8423586,4.8423586 0 0 1 -4.84272,-4.84164 4.8423586,4.8423586 0 0 1 4.84128,-4.84308 4.8423586,4.8423586 0 0 1 4.84344,4.84093 l -4.84236,0.001 z" />
    <path
       style="fill:#2f56c2"
       id="path388"
       sodipodi:type="arc"
       sodipodi:cx="196.73837"
       sodipodi:cy="172.21207"
       sodipodi:rx="4.1820369"
       sodipodi:ry="4.1820369"
       sodipodi:start="0"
       sodipodi:end="6.2828886"
       sodipodi:arc-type="slice"
       d="m 200.92041,172.21207 a 4.1820369,4.1820369 0 0 1 -4.18173,4.18203 4.1820369,4.1820369 0 0 1 -4.18234,-4.18141 4.1820369,4.1820369 0 0 1 4.1811,-4.18266 4.1820369,4.1820369 0 0 1 4.18297,4.1808 l -4.18204,0.001 z" />
    <path
       style="fill:#2f56c2"
       id="path390"
       sodipodi:type="arc"
       sodipodi:cx="192.99655"
       sodipodi:cy="190.92119"
       sodipodi:rx="5.7227879"
       sodipodi:ry="5.2825732"
       sodipodi:start="0"
       sodipodi:end="6.2828886"
       sodipodi:arc-type="slice"
       d="m 198.71934,190.92119 a 5.7227879,5.2825732 0 0 1 -5.72236,5.28257 5.7227879,5.2825732 0 0 1 -5.72322,-5.28179 5.7227879,5.2825732 0 0 1 5.72152,-5.28335 5.7227879,5.2825732 0 0 1 5.72406,5.281 l -5.72279,0.002 z" />
    <path
       style="fill:#2f56c2"
       id="path392"
       sodipodi:type="arc"
       sodipodi:cx="77.6604"
       sodipodi:cy="192.90215"
       sodipodi:rx="3.5217154"
       sodipodi:ry="3.3016083"
       sodipodi:start="0"
       sodipodi:end="6.2828886"
       sodipodi:arc-type="slice"
       d="m 81.182116,192.90215 a 3.5217154,3.3016083 0 0 1 -3.521454,3.3016 3.5217154,3.3016083 0 0 1 -3.521977,-3.30111 3.5217154,3.3016083 0 0 1 3.520932,-3.3021 3.5217154,3.3016083 0 0 1 3.522499,3.30063 l -3.521716,9.8e-4 z" />
    <path
       style="fill:#2f56c2"
       id="path397"
       sodipodi:type="arc"
       sodipodi:cx="98.57058"
       sodipodi:cy="205.00806"
       sodipodi:rx="5.0624661"
       sodipodi:ry="4.8423586"
       sodipodi:start="0"
       sodipodi:end="6.2828886"
       sodipodi:arc-type="slice"
       d="m 103.63305,205.00806 a 5.0624661,4.8423586 0 0 1 -5.062095,4.84236 5.0624661,4.8423586 0 0 1 -5.062842,-4.84164 5.0624661,4.8423586 0 0 1 5.06134,-4.84308 5.0624661,4.8423586 0 0 1 5.063597,4.84092 l -5.06247,0.001 z" />
    <path
       style="fill:#2f56c2"
       id="path399"
       sodipodi:type="arc"
       sodipodi:cx="190.35527"
       sodipodi:cy="206.54881"
       sodipodi:rx="3.9619298"
       sodipodi:ry="3.7418227"
       sodipodi:start="0"
       sodipodi:end="6.2828886"
       sodipodi:arc-type="slice"
       d="m 194.3172,206.54881 a 3.9619298,3.7418227 0 0 1 -3.96164,3.74183 3.9619298,3.7418227 0 0 1 -3.96222,-3.74127 3.9619298,3.7418227 0 0 1 3.96105,-3.74238 3.9619298,3.7418227 0 0 1 3.96281,3.74071 l -3.96193,0.001 z" />
    <path
       style="fill:#2f56c2"
       id="path404"
       sodipodi:type="arc"
       sodipodi:cx="204.00192"
       sodipodi:cy="201.92654"
       sodipodi:rx="1.7608577"
       sodipodi:ry="1.7608577"
       sodipodi:start="0"
       sodipodi:end="6.2828886"
       sodipodi:arc-type="slice"
       d="m 205.76278,201.92654 a 1.7608577,1.7608577 0 0 1 -1.76073,1.76086 1.7608577,1.7608577 0 0 1 -1.76099,-1.76059 1.7608577,1.7608577 0 0 1 1.76047,-1.76112 1.7608577,1.7608577 0 0 1 1.76125,1.76033 l -1.76086,5.2e-4 z" />
    <text
       xml:space="preserve"
       style="font-size:10.5833px;line-height:1.25;font-family:sans-serif;letter-spacing:0px;stroke-width:0.264583"
       x="95.048859"
       y="108.8212"
       id="text1354"><tspan
         sodipodi:role="line"
         id="tspan1352"
         style="stroke-width:0.264583"
         x="95.048859"
         y="108.8212" /></text>
    <text
       xml:space="preserve"
       style="font-size:10.5833px;line-height:1.25;font-family:sans-serif;letter-spacing:0px;fill:#ffffff;stroke-width:0.264583"
       x="85.364143"
       y="112.3429"
       id="text13834"><tspan
         sodipodi:role="line"
         id="tspan13832"
         style="fill:#ffffff;stroke-width:0.264583"
         x="85.364143"
         y="112.3429">IND</tspan></text>
    <text
       xml:space="preserve"
       style="font-size:10.5833px;line-height:1.25;font-family:sans-serif;letter-spacing:0px;stroke-width:0.264583"
       x="132.90727"
       y="139.85631"
       id="text26856"><tspan
         sodipodi:role="line"
         id="tspan26854"
         style="fill:#ffffff;stroke-width:0.264583"
         x="132.90727"
         y="139.85631">CHN</tspan></text>
    <text
       xml:space="preserve"
       style="font-size:4.23333px;line-height:1.25;font-family:sans-serif;letter-spacing:0px;stroke-width:0.264583"
       x="91.967361"
       y="137.65524"
       id="text30346"><tspan
         sodipodi:role="line"
         id="tspan30344"
         style="font-size:4.23333px;fill:#ffffff;stroke-width:0.264583"
         x="91.967361"
         y="137.65524">BNG</tspan></text>
    <text
       xml:space="preserve"
       style="font-size:4.23333px;line-height:1.25;font-family:sans-serif;letter-spacing:0px;stroke-width:0.264583"
       x="94.60865"
       y="206.3287"
       id="text34778"><tspan
         sodipodi:role="line"
         id="tspan34776"
         style="font-size:4.23333px;fill:#ffffff;stroke-width:0.264583"
         x="94.60865"
         y="206.3287">PAK</tspan></text>
    <text
       xml:space="preserve"
       style="font-size:3.52778px;line-height:1.25;font-family:sans-serif;letter-spacing:0px;stroke-width:0.264583"
       x="74.13868"
       y="193.78258"
       id="text39924"><tspan
         sodipodi:role="line"
         id="tspan39922"
         style="font-size:3.52778px;fill:#ffffff;stroke-width:0.264583"
         x="74.13868"
         y="193.78258">AFG</tspan></text>
    <text
       xml:space="preserve"
       style="font-size:4.93889px;line-height:1.25;font-family:sans-serif;letter-spacing:0px;stroke-width:0.264583"
       x="168.78477"
       y="175.51369"
       id="text44146"><tspan
         sodipodi:role="line"
         id="tspan44144"
         style="font-size:4.93889px;fill:#ffffff;stroke-width:0.264583"
         x="168.78477"
         y="175.51369">IRN</tspan></text>
    <text
       xml:space="preserve"
       style="font-size:3.52778px;line-height:1.25;font-family:sans-serif;letter-spacing:0px;stroke-width:0.264583"
       x="192.77644"
       y="173.0925"
       id="text47684"><tspan
         sodipodi:role="line"
         id="tspan47682"
         style="font-size:3.52778px;fill:#ffffff;stroke-width:0.264583"
         x="192.77644"
         y="173.0925">GBR</tspan></text>
    <text
       xml:space="preserve"
       style="font-size:5.64444px;line-height:1.25;font-family:sans-serif;letter-spacing:0px;stroke-width:0.264583"
       x="186.83354"
       y="193.12225"
       id="text56904"><tspan
         sodipodi:role="line"
         id="tspan56902"
         style="font-size:5.64444px;fill:#ffffff;stroke-width:0.264583"
         x="186.83354"
         y="193.12225">USA</tspan></text>
    <text
       xml:space="preserve"
       style="font-size:3.52778px;line-height:1.25;font-family:sans-serif;letter-spacing:0px;stroke-width:0.264583"
       x="186.83356"
       y="207.42924"
       id="text60034"><tspan
         sodipodi:role="line"
         id="tspan60032"
         style="font-size:3.52778px;fill:#ffffff;stroke-width:0.264583"
         x="186.83356"
         y="207.42924">CAN</tspan></text>
    <text
       xml:space="preserve"
       style="font-size:7.05556px;line-height:1.25;font-family:sans-serif;letter-spacing:0px;stroke-width:0.264583"
       x="101.43198"
       y="227.459"
       id="text62773"><tspan
         sodipodi:role="line"
         id="tspan62771"
         style="font-size:7.05556px;stroke-width:0.264583"
         x="101.43198"
         y="227.459">Urban Population %</tspan></text>
    <text
       xml:space="preserve"
       style="font-size:5.64444px;line-height:1.25;font-family:sans-serif;letter-spacing:0px;stroke-width:0.264583"
       x="-69.823097"
       y="154.91255"
       id="text64691"><tspan
         sodipodi:role="line"
         id="tspan64689"
         style="font-size:5.64444px;stroke-width:0.264583"
         x="-69.823097"
         y="154.91255">Capital City Population (1000s)</tspan></text>
    <path
       style="fill:#ff0000;stroke-width:0.440214"
       d="m 190.57524,195.39655 c -0.72645,-0.32925 -1.59262,-0.92613 -1.92482,-1.32641 -0.52614,-0.63397 -0.49491,-0.72777 0.24229,-0.72777 0.46546,0 1.08401,-0.23772 1.37455,-0.52826 0.63698,-0.63698 0.71054,-3.87389 0.088,-3.87389 -0.24212,0 -0.44021,0.47904 -0.44021,1.06454 0,1.51966 -0.43787,2.45718 -1.14764,2.45718 -0.44119,0 -0.61322,-0.60854 -0.61322,-2.16912 0,-1.81196 0.18856,-2.31745 1.14519,-3.06994 1.5269,-1.20105 3.73101,-1.56655 5.64256,-0.93568 1.78945,0.59057 3.35103,2.33888 3.30739,3.70287 -0.0293,0.9149 -0.0381,0.91387 -0.50749,-0.0594 -0.59185,-1.22719 -1.51227,-1.28096 -1.8839,-0.11005 -0.20669,0.65122 -0.66606,0.88043 -1.76454,0.88043 -0.81681,0 -1.6181,-0.21519 -1.78065,-0.4782 -0.19244,-0.31137 0.13064,-0.42656 0.92609,-0.33016 0.72972,0.0884 1.30013,-0.0854 1.41657,-0.43157 0.14373,-0.42739 -0.25084,-0.543 -1.50234,-0.44022 -1.36444,0.11206 -1.72446,0.33058 -1.83591,1.11432 -0.10459,0.73554 0.13862,1.04451 0.99049,1.25831 0.62101,0.15587 1.12911,0.48149 1.12911,0.72361 0,0.24974 -0.47618,0.3207 -1.10053,0.164 -0.81214,-0.20384 -1.10054,-0.10098 -1.10054,0.39249 0,0.79193 2.41929,0.94384 2.89044,0.18149 0.21011,-0.33996 0.42005,-0.3067 0.69467,0.11006 0.31854,0.48342 0.51378,0.4399 1.02436,-0.22832 0.73993,-0.96841 2.1308,-0.64364 1.91623,0.44744 -0.39525,2.0098 -4.70532,3.33663 -7.18619,2.21222 z"
       id="path69298" />
    <path
       style="fill:#ff0000;stroke-width:0.440214"
       d="m 187.99349,209.15814 c -1.33755,-1.05212 -1.64003,-2.44965 -0.38953,-1.79971 0.42371,0.22023 1.16657,0.24912 1.6508,0.0642 0.48424,-0.1849 1.4252,-0.2343 2.09102,-0.10978 0.77225,0.14443 1.21059,0.0357 1.21059,-0.30027 0,-0.32177 0.29126,-0.23543 0.74861,0.22192 0.70466,0.70466 0.67738,0.80987 -0.46476,1.7923 -1.49523,1.28614 -3.3159,1.33547 -4.84673,0.13132 z"
       id="path69337" />
    <path
       style="fill:#ff0000;stroke-width:0.440214"
       d="m 191.2868,205.55832 c -0.0585,-0.88229 -1.18725,-1.04571 -1.52038,-0.22011 -0.17763,0.44022 -0.22899,0.44022 -0.25679,0 -0.0191,-0.30265 -0.57952,-0.55686 -1.24535,-0.56491 l -1.21059,-0.0146 1.03925,-0.86579 c 0.57159,-0.47618 1.56752,-0.86578 2.21318,-0.86578 1.47824,0 3.14158,1.13684 3.09593,2.11598 -0.0214,0.45841 -0.12025,0.53355 -0.25679,0.19514 -0.32761,-0.81188 -1.37386,-0.6685 -1.60608,0.22011 -0.19173,0.73369 -0.20375,0.73369 -0.25238,0 z"
       id="path69376" />
    <path
       style="fill:#ff0000;stroke-width:0.440214"
       d=""
       id="path69415" />
    <path
       style="fill:#ff0000;stroke-width:0.440214"
       d=""
       id="path69454" />
    <path
       style="fill:#ff0000;stroke-width:0.440214"
       d=""
       id="path69493" />
    <path
       style="fill:#ff0000;stroke-width:0.440214"
       d=""
       id="path69532" />
    <path
       style="fill:#ff0000;stroke-width:0.440214"
       d=""
       id="path69571" />
    <path
       style="fill:#ff0000;stroke-width:0.22677"
       d=""
       id="path69610" />
    <path
       style="fill:#ff0000;stroke-width:0.22677"
       d="m 189.21712,207.07043 c -0.008,-0.14893 -0.26079,-0.20491 -0.61675,-0.13687 -0.69879,0.13358 -1.22749,-0.40914 -1.05206,-1.07997 0.14458,-0.55291 0.66528,-0.74534 1.21732,-0.4499 0.32542,0.17416 0.44169,0.15947 0.45502,-0.0575 0.01,-0.1603 0.11481,-0.0276 0.23325,0.29491 0.13675,0.37235 0.13546,0.78618 -0.004,1.13385 -0.12038,0.30112 -0.22534,0.43409 -0.23325,0.29548 z"
       id="path69649" />
    <path
       style="fill:#ff0000;stroke-width:0.22677"
       d=""
       id="path69688" />
    <path
       style="fill:#ff0000;stroke-width:0.22677"
       d=""
       id="path69727" />
    <path
       style="fill:#ff0000;stroke-width:0.22677"
       d=""
       id="path69766" />
    <path
       style="fill:#ff0000;stroke-width:0.22677"
       d="m 193.68861,207.26575 c -0.042,-0.0935 -0.013,-0.68031 0.0644,-1.30393 l 0.14067,-1.13384 0.0356,1.30392 c 0.0327,1.19784 -0.0459,1.56813 -0.24068,1.13385 z"
       id="path69805" />
    <path
       style="fill:#ff0000;stroke-width:0.22677"
       d=""
       id="path69844" />
    <path
       style="fill:#ff0000;stroke-width:0.22677"
       d="m 190.56336,195.18545 c -1.03726,-0.48473 -2.04092,-1.28243 -2.04092,-1.6221 0,-0.10299 0.29873,-0.18724 0.66385,-0.18724 1.13664,0 1.63495,-0.903 1.55624,-2.82007 -0.0508,-1.23667 -0.14263,-1.60194 -0.40281,-1.60194 -0.2342,0 -0.39,0.36803 -0.51062,1.20616 -0.21461,1.49124 -0.54105,2.13145 -1.0385,2.03664 -0.30551,-0.0582 -0.39509,-0.38512 -0.4495,-1.64031 -0.0828,-1.90939 0.19645,-2.64622 1.27916,-3.37577 1.89139,-1.27444 4.38392,-1.38624 6.26949,-0.28122 1.07786,0.63166 2.15702,1.9848 2.15702,2.70464 0,0.37073 -0.0662,0.34735 -0.47,-0.16602 -0.62162,-0.79027 -1.24749,-0.76194 -1.68084,0.0761 -0.48074,0.92965 -1.10847,1.2134 -2.29183,1.03594 -1.34085,-0.20107 -1.50176,-0.57568 -0.24726,-0.57568 1.03965,0 1.69322,-0.43549 1.38996,-0.92618 -0.20405,-0.33016 -2.73846,-0.10644 -3.20792,0.28318 -0.19172,0.15911 -0.29105,0.57963 -0.24998,1.05827 0.0572,0.66601 0.18554,0.83391 0.79517,1.03988 0.39985,0.13509 0.85906,0.38136 1.02046,0.54727 0.24324,0.25002 0.12004,0.28883 -0.71988,0.22677 -0.8442,-0.0624 -1.02771,-0.004 -1.09947,0.35149 -0.0474,0.2345 0.0515,0.51356 0.21964,0.62014 0.42363,0.26847 1.94575,0.24922 2.46978,-0.0312 0.30788,-0.16477 0.56405,-0.15036 0.88451,0.0498 0.39015,0.24365 0.54118,0.19541 1.11779,-0.35701 1.20844,-1.15776 2.29599,-0.0491 1.15413,1.17655 -1.38731,1.48911 -4.64507,2.07045 -6.56767,1.17199 z"
       id="path69883" />
    <path
       style="fill:#ff0000;stroke-width:0.22677"
       d="m 196.40533,191.8551 c 0.28208,-0.0542 0.69027,-0.0522 0.90708,0.005 0.21681,0.0568 -0.014,0.10113 -0.51288,0.0986 -0.49889,-0.003 -0.67628,-0.049 -0.3942,-0.1032 z"
       id="path69922" />
    <path
       style="fill:#ff0000;stroke-width:0.22677"
       d="m 194.64522,192.1062 c 0,-0.37418 -0.11681,-0.79712 -0.25957,-0.93989 -0.19492,-0.19491 -0.10756,-0.29772 0.35071,-0.41274 0.81455,-0.20444 0.93345,-0.0296 0.58335,0.8578 -0.43138,1.09338 -0.67449,1.27173 -0.67449,0.49483 z"
       id="path69961" />
    <path
       style="fill:#241c1c;stroke-width:0.22677"
       d="m 195.47411,176.045 c -1.58562,-0.57881 -2.51627,-1.77623 -2.77043,-3.5646 l -0.14035,-0.98757 0.41733,0.79369 c 0.37082,0.70524 0.51842,0.79369 1.3244,0.79369 0.85762,0 0.91096,-0.0402 0.97814,-0.737 0.0635,-0.65829 0.009,-0.737 -0.51023,-0.737 -0.36552,0 -0.58129,0.12626 -0.58129,0.34016 0,0.18708 0.15307,0.34015 0.34015,0.34015 0.18709,0 0.34016,0.10205 0.34016,0.22677 0,0.34415 -0.81487,0.27097 -1.12349,-0.1009 -0.14957,-0.18022 -0.2386,-0.5629 -0.19784,-0.85039 0.0631,-0.44535 0.19995,-0.51888 0.92448,-0.49685 0.5797,0.0176 0.85039,-0.0726 0.85039,-0.28346 0,-0.44705 -1.56784,-0.39731 -2.07976,0.066 -0.59068,0.53456 -0.51266,0.1009 0.15994,-0.88891 1.49149,-2.19494 4.60711,-2.35031 6.39088,-0.31871 2.62174,2.986 -0.60211,7.76303 -4.32248,6.40496 z m 2.09158,-3.05635 c 0.24305,-0.15395 0.26806,-0.4433 0.11241,-1.30045 -0.194,-1.06834 -0.22648,-1.10463 -1.04962,-1.17284 l -0.84941,-0.0704 v 1.3743 1.37431 l 0.737,-0.003 c 0.40535,-0.002 0.87768,-0.0926 1.04962,-0.20147 z m 1.16139,-0.24859 c 0,-0.24945 0.0862,-0.45354 0.19162,-0.45354 0.10539,0 0.37632,0.20409 0.60207,0.45354 0.22574,0.24945 0.55465,0.45354 0.7309,0.45354 0.247,0 0.21951,-0.14292 -0.11995,-0.62362 -0.32812,-0.46462 -0.38067,-0.71693 -0.20612,-0.98964 0.40034,-0.62548 0.0296,-1.10798 -0.85125,-1.10798 h -0.80082 v 1.36062 c 0,0.7559 0.10079,1.36062 0.22677,1.36062 0.12473,0 0.22678,-0.20409 0.22678,-0.45354 z"
       id="path70076" />
    <path
       style="fill:#241c1c;stroke-width:0.22677"
       d="m 202.91201,203.02413 c -0.91385,-0.91386 -0.65114,-2.15597 0.54413,-2.57265 1.25162,-0.43631 2.50157,0.75751 2.04645,1.95457 -0.47101,1.23883 -1.68111,1.52754 -2.59058,0.61808 z"
       id="path70115" />
    <rect
       style="fill:#0000ff;stroke-width:0.264583"
       id="rect70176"
       width="6.0043221"
       height="6.0043221"
       x="232.17857"
       y="100.26008" />
    <rect
       style="fill:#2b0000;stroke-width:0.264583"
       id="rect70176-0"
       width="6.0043221"
       height="6.0043221"
       x="232.47704"
       y="116.90691" />
    <rect
       style="fill:#ff0000;stroke-width:0.264583"
       id="rect70176-3"
       width="6.0043221"
       height="6.0043221"
       x="232.14484"
       y="108.47813" />
    <text
       xml:space="preserve"
       style="font-size:5.64444px;line-height:1.25;font-family:sans-serif;letter-spacing:0px;stroke-width:0.264583"
       x="242.13808"
       y="105.75417"
       id="text72790"><tspan
         sodipodi:role="line"
         id="tspan72788"
         style="font-size:5.64444px;stroke-width:0.264583"
         x="242.13808"
         y="105.75417">Asia</tspan></text>
    <text
       xml:space="preserve"
       style="font-size:5.64444px;line-height:1.25;font-family:sans-serif;letter-spacing:0px;stroke-width:0.264583"
       x="242.61052"
       y="113.59697"
       id="text72992"><tspan
         sodipodi:role="line"
         id="tspan72990"
         style="font-size:5.64444px;stroke-width:0.264583"
         x="242.61052"
         y="113.59697">North America</tspan></text>
    <text
       xml:space="preserve"
       style="font-size:5.64444px;line-height:1.25;font-family:sans-serif;letter-spacing:0px;stroke-width:0.264583"
       x="243.12077"
       y="121.39122"
       id="text73710"><tspan
         sodipodi:role="line"
         id="tspan73708"
         style="font-size:5.64444px;stroke-width:0.264583"
         x="243.12077"
         y="121.39122">Europe</tspan></text>
    <text
       xml:space="preserve"
       style="font-size:5.64444px;line-height:1.25;font-family:sans-serif;letter-spacing:0px;stroke-width:0.264583"
       x="8.2228289"
       y="86.391685"
       id="text77602"><tspan
         sodipodi:role="line"
         id="tspan77600"
         style="font-size:5.64444px;stroke-width:0.264583"
         x="8.2228289"
         y="86.391685">Capital City Population (in 1000s) vs Urban Population % in selected countries (2018)</tspan><tspan
         sodipodi:role="line"
         style="font-size:5.64444px;stroke-width:0.264583"
         x="8.2228289"
         y="93.447235"
         id="tspan78848" /></text>
    <text
       xml:space="preserve"
       style="font-size:5.64444px;line-height:1.25;font-family:sans-serif;letter-spacing:0px;stroke-width:0.264583"
       x="9.5569992"
       y="94.255753"
       id="text81605"><tspan
         sodipodi:role="line"
         id="tspan81603"
         style="font-size:5.64444px;stroke-width:0.264583"
         x="9.5569992"
         y="94.255753">Bubble size represents total population</tspan></text>
  </g>
</svg>
