<?xml version="1.0" encoding="UTF-8" standalone="no"?>
<!-- Created with Inkscape (http://www.inkscape.org/) -->

<svg
   width="2023.3885mm"
   height="266.1134mm"
   viewBox="0 0 2023.3886 266.1134"
   version="1.1"
   id="svg5"
   inkscape:version="1.1 (c4e8f9e, 2021-05-24)"
   sodipodi:docname="chart-3.svg"
   xmlns:inkscape="http://www.inkscape.org/namespaces/inkscape"
   xmlns:sodipodi="http://sodipodi.sourceforge.net/DTD/sodipodi-0.dtd"
   xmlns="http://www.w3.org/2000/svg"
   xmlns:svg="http://www.w3.org/2000/svg">
  <sodipodi:namedview
     id="namedview7"
     pagecolor="#ffffff"
     bordercolor="#666666"
     borderopacity="1.0"
     inkscape:pageshadow="2"
     inkscape:pageopacity="0.0"
     inkscape:pagecheckerboard="0"
     inkscape:document-units="mm"
     showgrid="true"
     inkscape:zoom="0.33565197"
     inkscape:cx="3823.9013"
     inkscape:cy="828.23885"
     inkscape:window-width="1440"
     inkscape:window-height="872"
     inkscape:window-x="0"
     inkscape:window-y="28"
     inkscape:window-maximized="0"
     inkscape:current-layer="layer1">
    <inkscape:grid
       type="xygrid"
       id="grid233"
       originx="39.013526"
       originy="-24.900022" />
  </sodipodi:namedview>
  <defs
     id="defs2" />
  <g
     inkscape:label="Layer 1"
     inkscape:groupmode="layer"
     id="layer1"
     transform="translate(39.013525,-24.900022)">
    <circle
       id="path44"
       style="fill:#2b0000;stroke:#000000;stroke-width:0.264583"
       cx="-38.809437"
       cy="68.455536"
       r="0.071796931" />
    <circle
       id="path46"
       style="fill:#2b0000;stroke:#000000;stroke-width:0.264583"
       cx="-38.809437"
       cy="68.455536"
       r="0.071796931" />
    <text
       xml:space="preserve"
       style="font-size:25.4px;line-height:1.25;font-family:sans-serif;letter-spacing:0px;stroke-width:0.264583"
       x="718.65057"
       y="156.91637"
       id="text15318"><tspan
         sodipodi:role="line"
         id="tspan15316"
         style="font-size:25.4px;stroke-width:0.264583"
         x="718.65057"
         y="156.91637">Net Enrollment Rate (Primary School)</tspan></text>
    <circle
       id="path51732"
       style="fill:#000000;stroke:#000000;stroke-width:0.264583"
       cx="6.1586685"
       cy="25.09499"
       r="0.06267596" />
    <circle
       id="path51734"
       style="fill:#000000;stroke:#000000;stroke-width:0.264583"
       cx="6.1586685"
       cy="25.09499"
       r="0.06267596" />
    <circle
       id="path51736"
       style="fill:#000000;stroke:#000000;stroke-width:0.264583"
       cx="11.334649"
       cy="164.84647"
       r="0.06267596" />
    <path
       style="fill:#000000"
       id="path397"
       sodipodi:type="arc"
       sodipodi:cx="38.611477"
       sodipodi:cy="230.37106"
       sodipodi:rx="47.625"
       sodipodi:ry="47.625"
       sodipodi:start="0"
       sodipodi:end="6.2828886"
       sodipodi:arc-type="slice"
       d="m 86.236477,230.37106 a 47.625,47.625 0 0 1 -47.621467,47.625 47.625,47.625 0 0 1 -47.6285326,-47.61793 47.625,47.625 0 0 1 47.6144016,-47.63207 47.625,47.625 0 0 1 47.635596,47.61087 l -47.624998,0.0141 z" />
    <path
       style="fill:#000000"
       id="path397-9"
       sodipodi:type="arc"
       sodipodi:cx="145.52084"
       sodipodi:cy="232.84682"
       sodipodi:rx="44.979164"
       sodipodi:ry="45.445251"
       sodipodi:start="0"
       sodipodi:end="6.2828886"
       sodipodi:arc-type="slice"
       d="m 190.50001,232.84682 a 44.979164,45.445251 0 0 1 -44.97583,45.44525 44.979164,45.445251 0 0 1 -44.9825,-45.43851 44.979164,45.445251 0 0 1 44.96915,-45.45199 44.979164,45.445251 0 0 1 44.98918,45.43176 l -44.97917,0.0135 z" />
    <text
       xml:space="preserve"
       style="font-size:14.1111px;line-height:1.25;font-family:sans-serif;letter-spacing:0px;fill:#ffffff;stroke-width:0.264583"
       x="120.02213"
       y="237.89879"
       id="text2029-5"><tspan
         sodipodi:role="line"
         id="tspan2027-8"
         style="font-size:14.1111px;fill:#ffffff;stroke-width:0.264583"
         x="120.02213"
         y="237.89879">Austria</tspan></text>
    <path
       style="fill:#000000"
       id="path397-2"
       sodipodi:type="arc"
       sodipodi:cx="238.125"
       sodipodi:cy="243.42693"
       sodipodi:rx="37.04166"
       sodipodi:ry="34.573135"
       sodipodi:start="0"
       sodipodi:end="6.2828886"
       sodipodi:arc-type="slice"
       d="m 275.16666,243.42693 a 37.04166,34.573135 0 0 1 -37.03891,34.57313 37.04166,34.573135 0 0 1 -37.04441,-34.56801 37.04166,34.573135 0 0 1 37.03342,-34.57826 37.04166,34.573135 0 0 1 37.0499,34.56288 l -37.04166,0.0103 z" />
    <text
       xml:space="preserve"
       style="font-size:14.1111px;line-height:1.25;font-family:sans-serif;letter-spacing:0px;fill:#ffffff;stroke-width:0.264583"
       x="209.63773"
       y="233.6216"
       id="text2029-9"><tspan
         sodipodi:role="line"
         id="tspan2027-9"
         style="font-size:14.1111px;fill:#ffffff;stroke-width:0.264583"
         x="209.63773"
         y="233.6216">Azerbaijan</tspan></text>
    <path
       style="fill:#000000"
       id="path397-7"
       sodipodi:type="arc"
       sodipodi:cx="328.08334"
       sodipodi:cy="232.83333"
       sodipodi:rx="47.625"
       sodipodi:ry="47.625"
       sodipodi:start="0"
       sodipodi:end="6.2828886"
       sodipodi:arc-type="slice"
       d="m 375.70834,232.83333 a 47.625,47.625 0 0 1 -47.62146,47.625 47.625,47.625 0 0 1 -47.62854,-47.61794 47.625,47.625 0 0 1 47.61441,-47.63206 47.625,47.625 0 0 1 47.63559,47.61087 l -47.625,0.0141 z" />
    <text
       xml:space="preserve"
       style="font-size:14.1111px;line-height:1.25;font-family:sans-serif;letter-spacing:0px;fill:#ffffff;stroke-width:0.264583"
       x="301.6181"
       y="236.32227"
       id="text2029-93"><tspan
         sodipodi:role="line"
         id="tspan2027-3"
         style="font-size:14.1111px;fill:#ffffff;stroke-width:0.264583"
         x="301.6181"
         y="236.32227">Bahrain</tspan></text>
    <path
       style="fill:#000000"
       id="path397-90"
       sodipodi:type="arc"
       sodipodi:cx="433.91666"
       sodipodi:cy="232.83333"
       sodipodi:rx="47.625"
       sodipodi:ry="47.625"
       sodipodi:start="0"
       sodipodi:end="6.2828886"
       sodipodi:arc-type="slice"
       d="m 481.54166,232.83333 a 47.625,47.625 0 0 1 -47.62147,47.625 47.625,47.625 0 0 1 -47.62853,-47.61794 47.625,47.625 0 0 1 47.6144,-47.63206 47.625,47.625 0 0 1 47.63559,47.61087 l -47.62499,0.0141 z" />
    <text
       xml:space="preserve"
       style="font-size:14.1111px;line-height:1.25;font-family:sans-serif;letter-spacing:0px;fill:#ffffff;stroke-width:0.264583"
       x="411.50934"
       y="233.6216"
       id="text2029-7"><tspan
         sodipodi:role="line"
         id="tspan2027-7"
         style="font-size:14.1111px;fill:#ffffff;stroke-width:0.264583"
         x="411.50934"
         y="233.6216">Belgium</tspan></text>
    <path
       style="fill:#000000"
       id="path397-23"
       sodipodi:type="arc"
       sodipodi:cx="531.8125"
       sodipodi:cy="243.42766"
       sodipodi:rx="39.6875"
       sodipodi:ry="37.030674"
       sodipodi:start="0"
       sodipodi:end="6.2828886"
       sodipodi:arc-type="slice"
       d="M 571.5,243.42766 A 39.6875,37.030674 0 0 1 531.81544,280.45833 39.6875,37.030674 0 0 1 492.125,243.43315 39.6875,37.030674 0 0 1 531.80367,206.39699 39.6875,37.030674 0 0 1 571.5,243.41667 l -39.6875,0.011 z" />
    <text
       xml:space="preserve"
       style="font-size:14.1111px;line-height:1.25;font-family:sans-serif;letter-spacing:0px;fill:#ffffff;stroke-width:0.264583"
       x="513.06549"
       y="248.59868"
       id="text2029-3"><tspan
         sodipodi:role="line"
         id="tspan2027-2"
         style="font-size:14.1111px;fill:#ffffff;stroke-width:0.264583"
         x="513.06549"
         y="248.59868">Brazil</tspan></text>
    <path
       style="fill:#000000"
       id="path397-99"
       sodipodi:type="arc"
       sodipodi:cx="624.41669"
       sodipodi:cy="232.83333"
       sodipodi:rx="47.625"
       sodipodi:ry="47.625"
       sodipodi:start="0"
       sodipodi:end="6.2828886"
       sodipodi:arc-type="slice"
       d="m 672.04169,232.83333 a 47.625,47.625 0 0 1 -47.62147,47.625 47.625,47.625 0 0 1 -47.62853,-47.61794 47.625,47.625 0 0 1 47.6144,-47.63206 47.625,47.625 0 0 1 47.63559,47.61087 l -47.62499,0.0141 z" />
    <text
       xml:space="preserve"
       style="font-size:14.1111px;line-height:1.25;font-family:sans-serif;letter-spacing:0px;fill:#ffffff;stroke-width:0.264583"
       x="598.62323"
       y="235.98639"
       id="text2029-56"><tspan
         sodipodi:role="line"
         id="tspan2027-34"
         style="font-size:14.1111px;fill:#ffffff;stroke-width:0.264583"
         x="598.62323"
         y="235.98639">Canada</tspan></text>
    <path
       style="fill:#000000"
       id="path397-70"
       sodipodi:type="arc"
       sodipodi:cx="719.66669"
       sodipodi:cy="243.41667"
       sodipodi:rx="39.6875"
       sodipodi:ry="37.030674"
       sodipodi:start="0"
       sodipodi:end="6.2828886"
       sodipodi:arc-type="slice"
       d="m 759.35419,243.41667 a 39.6875,37.030674 0 0 1 -39.68456,37.03068 39.6875,37.030674 0 0 1 -39.69044,-37.02518 39.6875,37.030674 0 0 1 39.67867,-37.03617 39.6875,37.030674 0 0 1 39.69633,37.01968 l -39.6875,0.011 z" />
    <text
       xml:space="preserve"
       style="font-size:14.1111px;line-height:1.25;font-family:sans-serif;letter-spacing:0px;fill:#ffffff;stroke-width:0.264583"
       x="683.96161"
       y="245.4456"
       id="text2029-0"><tspan
         sodipodi:role="line"
         id="tspan2027-6"
         style="font-size:14.1111px;fill:#ffffff;stroke-width:0.264583"
         x="683.96161"
         y="245.4456">Cameroon</tspan></text>
    <path
       style="fill:#000000"
       id="path397-8"
       sodipodi:type="arc"
       sodipodi:cx="812.27087"
       sodipodi:cy="243.41667"
       sodipodi:rx="44.979156"
       sodipodi:ry="47.59676"
       sodipodi:start="0"
       sodipodi:end="6.2828886"
       sodipodi:arc-type="slice"
       d="m 857.25003,243.41667 a 44.979156,47.59676 0 0 1 -44.97582,47.59676 44.979156,47.59676 0 0 1 -44.98249,-47.5897 44.979156,47.59676 0 0 1 44.96914,-47.60382 44.979156,47.59676 0 0 1 44.98917,47.58264 l -44.97916,0.0141 z" />
    <text
       xml:space="preserve"
       style="font-size:13.7115px;line-height:1.25;font-family:sans-serif;letter-spacing:0px;fill:#ffffff;stroke-width:0.25709"
       x="817.20673"
       y="241.76234"
       id="text2029-04"
       transform="scale(0.97196932,1.0288391)"><tspan
         sodipodi:role="line"
         id="tspan2027-0"
         style="font-size:13.7115px;fill:#ffffff;stroke-width:0.25709"
         x="817.20673"
         y="241.76234">Cuba</tspan></text>
    <path
       style="fill:#000000"
       id="path397-6"
       sodipodi:type="arc"
       sodipodi:cx="920.75"
       sodipodi:cy="232.83333"
       sodipodi:rx="47.625"
       sodipodi:ry="47.625"
       sodipodi:start="0"
       sodipodi:end="6.2828886"
       sodipodi:arc-type="slice"
       d="m 968.375,232.83333 a 47.625,47.625 0 0 1 -47.62147,47.625 47.625,47.625 0 0 1 -47.62853,-47.61794 47.625,47.625 0 0 1 47.6144,-47.63206 47.625,47.625 0 0 1 47.6356,47.61087 l -47.625,0.0141 z" />
    <text
       xml:space="preserve"
       style="font-size:14.1111px;line-height:1.25;font-family:sans-serif;letter-spacing:0px;fill:#ffffff;stroke-width:0.264583"
       x="887.42346"
       y="238.94092"
       id="text2029-568"><tspan
         sodipodi:role="line"
         id="tspan2027-5"
         style="font-size:14.1111px;fill:#ffffff;stroke-width:0.264583"
         x="887.42346"
         y="238.94092">Denmark</tspan></text>
    <path
       style="fill:#000000"
       id="path397-5"
       sodipodi:type="arc"
       sodipodi:cx="1018.6459"
       sodipodi:cy="243.42766"
       sodipodi:rx="39.687481"
       sodipodi:ry="37.030674"
       sodipodi:start="0"
       sodipodi:end="6.2828886"
       sodipodi:arc-type="slice"
       d="m 1058.3334,243.42766 a 39.687481,37.030674 0 0 1 -39.6846,37.03067 39.687481,37.030674 0 0 1 -39.69041,-37.02518 39.687481,37.030674 0 0 1 39.67861,-37.03616 39.687481,37.030674 0 0 1 39.6964,37.01968 l -39.6875,0.011 z" />
    <text
       xml:space="preserve"
       style="font-size:11.3588px;line-height:1.25;font-family:sans-serif;letter-spacing:0px;fill:#ffffff;stroke-width:0.212978"
       x="950.42377"
       y="253.75264"
       id="text2029-37"
       transform="scale(1.0352517,0.96594867)"><tspan
         sodipodi:role="line"
         id="tspan2027-68"
         style="font-size:11.3588px;fill:#ffffff;stroke-width:0.212978"
         x="950.42377"
         y="253.75264">El Salvador</tspan></text>
    <path
       style="fill:#000000"
       id="path397-76"
       sodipodi:type="arc"
       sodipodi:cx="1119.1875"
       sodipodi:cy="232.84746"
       sodipodi:rx="44.979145"
       sodipodi:ry="47.61087"
       sodipodi:start="0"
       sodipodi:end="6.2828886"
       sodipodi:arc-type="slice"
       d="m 1164.1666,232.84746 a 44.979145,47.61087 0 0 1 -44.9758,47.61087 44.979145,47.61087 0 0 1 -44.9824,-47.60381 44.979145,47.61087 0 0 1 44.9691,-47.61793 44.979145,47.61087 0 0 1 44.9891,47.59674 l -44.9791,0.0141 z" />
    <text
       xml:space="preserve"
       style="font-size:13.7115px;line-height:1.25;font-family:sans-serif;letter-spacing:0px;fill:#ffffff;stroke-width:0.25709"
       x="1144.6836"
       y="229.9574"
       id="text2029-6"
       transform="scale(0.97196932,1.0288391)"><tspan
         sodipodi:role="line"
         id="tspan2027-71"
         style="font-size:13.7115px;fill:#ffffff;stroke-width:0.25709"
         x="1144.6836"
         y="229.9574">Fiji</tspan></text>
    <path
       style="fill:#000000"
       id="path397-703"
       sodipodi:type="arc"
       sodipodi:cx="1221.8458"
       sodipodi:cy="232.83333"
       sodipodi:rx="47.625"
       sodipodi:ry="47.625"
       sodipodi:start="0"
       sodipodi:end="6.2828886"
       sodipodi:arc-type="slice"
       d="m 1269.4708,232.83333 a 47.625,47.625 0 0 1 -47.6214,47.625 47.625,47.625 0 0 1 -47.6286,-47.61794 47.625,47.625 0 0 1 47.6144,-47.63206 47.625,47.625 0 0 1 47.6356,47.61087 l -47.625,0.0141 z" />
    <text
       xml:space="preserve"
       style="font-size:14.1111px;line-height:1.25;font-family:sans-serif;letter-spacing:0px;fill:#ffffff;stroke-width:0.264583"
       x="1194.373"
       y="234.99959"
       id="text2029-8"><tspan
         sodipodi:role="line"
         id="tspan2027-4"
         style="font-size:14.1111px;fill:#ffffff;stroke-width:0.264583"
         x="1194.373"
         y="234.99959">Georgia</tspan></text>
    <path
       style="fill:#000000"
       id="path397-999"
       sodipodi:type="arc"
       sodipodi:cx="1333.5"
       sodipodi:cy="232.83333"
       sodipodi:rx="47.625"
       sodipodi:ry="47.625"
       sodipodi:start="0"
       sodipodi:end="6.2828886"
       sodipodi:arc-type="slice"
       d="m 1381.125,232.83333 a 47.625,47.625 0 0 1 -47.6215,47.625 47.625,47.625 0 0 1 -47.6285,-47.61794 47.625,47.625 0 0 1 47.6144,-47.63206 47.625,47.625 0 0 1 47.6356,47.61087 l -47.625,0.0141 z" />
    <text
       xml:space="preserve"
       style="font-size:14.1111px;line-height:1.25;font-family:sans-serif;letter-spacing:0px;fill:#ffffff;stroke-width:0.264583"
       x="1305.2717"
       y="234.99959"
       id="text2029-73"><tspan
         sodipodi:role="line"
         id="tspan2027-1"
         style="font-size:14.1111px;fill:#ffffff;stroke-width:0.264583"
         x="1305.2717"
         y="234.99959">Iceland</tspan></text>
    <path
       style="fill:#000000"
       id="path397-1"
       sodipodi:type="arc"
       sodipodi:cx="1431.3959"
       sodipodi:cy="243.42766"
       sodipodi:rx="39.687481"
       sodipodi:ry="37.030674"
       sodipodi:start="0"
       sodipodi:end="6.2828886"
       sodipodi:arc-type="slice"
       d="m 1471.0834,243.42766 a 39.687481,37.030674 0 0 1 -39.6846,37.03067 39.687481,37.030674 0 0 1 -39.6904,-37.02518 39.687481,37.030674 0 0 1 39.6786,-37.03616 39.687481,37.030674 0 0 1 39.6964,37.01968 l -39.6875,0.011 z" />
    <path
       style="fill:#000000"
       id="path397-236"
       sodipodi:type="arc"
       sodipodi:cx="1534.5834"
       sodipodi:cy="232.83333"
       sodipodi:rx="47.625"
       sodipodi:ry="47.625"
       sodipodi:start="0"
       sodipodi:end="6.2828886"
       sodipodi:arc-type="slice"
       d="m 1582.2084,232.83333 a 47.625,47.625 0 0 1 -47.6215,47.625 47.625,47.625 0 0 1 -47.6285,-47.61794 47.625,47.625 0 0 1 47.6144,-47.63206 47.625,47.625 0 0 1 47.6356,47.61087 l -47.625,0.0141 z" />
    <path
       style="fill:#000000"
       id="path397-55"
       sodipodi:type="arc"
       sodipodi:cx="1632.4791"
       sodipodi:cy="243.42766"
       sodipodi:rx="39.687519"
       sodipodi:ry="37.030674"
       sodipodi:start="0"
       sodipodi:end="6.2828886"
       sodipodi:arc-type="slice"
       d="m 1672.1666,243.42766 a 39.687519,37.030674 0 0 1 -39.6845,37.03067 39.687519,37.030674 0 0 1 -39.6905,-37.02518 39.687519,37.030674 0 0 1 39.6787,-37.03616 39.687519,37.030674 0 0 1 39.6963,37.01968 l -39.6875,0.011 z" />
    <text
       xml:space="preserve"
       style="font-size:11.3588px;line-height:1.25;font-family:sans-serif;letter-spacing:0px;fill:#ffffff;stroke-width:0.212978"
       x="1357.9871"
       y="253.75264"
       id="text2029-374"
       transform="scale(1.0352517,0.96594867)"><tspan
         sodipodi:role="line"
         id="tspan2027-80"
         style="font-size:11.3588px;fill:#ffffff;stroke-width:0.212978"
         x="1357.9871"
         y="253.75264">Hungary</tspan></text>
    <path
       style="fill:#000000"
       id="path397-81"
       sodipodi:type="arc"
       sodipodi:cx="1735.6666"
       sodipodi:cy="232.83333"
       sodipodi:rx="47.625"
       sodipodi:ry="47.625"
       sodipodi:start="0"
       sodipodi:end="6.2828886"
       sodipodi:arc-type="slice"
       d="m 1783.2916,232.83333 a 47.625,47.625 0 0 1 -47.6214,47.625 47.625,47.625 0 0 1 -47.6286,-47.61794 47.625,47.625 0 0 1 47.6144,-47.63206 47.625,47.625 0 0 1 47.6356,47.61087 l -47.625,0.0141 z" />
    <text
       xml:space="preserve"
       style="font-size:14.1111px;line-height:1.25;font-family:sans-serif;letter-spacing:0px;fill:#ffffff;stroke-width:0.264583"
       x="1517.1857"
       y="236.45959"
       id="text2029-4"><tspan
         sodipodi:role="line"
         id="tspan2027-05"
         style="font-size:14.1111px;fill:#ffffff;stroke-width:0.264583"
         x="1517.1857"
         y="236.45959">Italy</tspan></text>
    <path
       style="fill:#000000"
       id="path397-4"
       sodipodi:type="arc"
       sodipodi:cx="1836.2084"
       sodipodi:cy="243.42766"
       sodipodi:rx="47.624981"
       sodipodi:ry="37.0448"
       sodipodi:start="0"
       sodipodi:end="6.2828886"
       sodipodi:arc-type="slice"
       d="m 1883.8334,243.42766 a 47.624981,37.0448 0 0 1 -47.6215,37.0448 47.624981,37.0448 0 0 1 -47.6285,-37.03931 47.624981,37.0448 0 0 1 47.6144,-37.05029 47.624981,37.0448 0 0 1 47.6356,37.03381 l -47.625,0.011 z" />
    <text
       xml:space="preserve"
       style="font-size:12.4453px;line-height:1.25;font-family:sans-serif;letter-spacing:0px;fill:#ffffff;stroke-width:0.23335"
       x="1599.5255"
       y="277.69592"
       id="text2029-78-5"
       transform="scale(1.1338452,0.88195458)"><tspan
         sodipodi:role="line"
         id="tspan2027-06-9"
         style="font-size:12.4453px;fill:#ffffff;stroke-width:0.23335"
         x="1599.5255"
         y="277.69592">Ireland</tspan></text>
    <text
       xml:space="preserve"
       style="font-size:11.3588px;line-height:1.25;font-family:sans-serif;letter-spacing:0px;fill:#ffffff;stroke-width:0.212978"
       x="1556.0117"
       y="253.9126"
       id="text2029-70"
       transform="scale(1.0352522,0.96594817)"><tspan
         sodipodi:role="line"
         id="tspan2027-056"
         style="font-size:11.3588px;fill:#ffffff;stroke-width:0.212978"
         x="1556.0117"
         y="253.9126">Jamaica</tspan></text>
    <path
       style="fill:#000000"
       id="path397-71"
       sodipodi:type="arc"
       sodipodi:cx="1936.75"
       sodipodi:cy="232.83333"
       sodipodi:rx="47.625"
       sodipodi:ry="47.625"
       sodipodi:start="0"
       sodipodi:end="6.2828886"
       sodipodi:arc-type="slice"
       d="m 1984.375,232.83333 a 47.625,47.625 0 0 1 -47.6215,47.625 47.625,47.625 0 0 1 -47.6285,-47.61794 47.625,47.625 0 0 1 47.6144,-47.63206 47.625,47.625 0 0 1 47.6356,47.61087 l -47.625,0.0141 z" />
    <text
       xml:space="preserve"
       style="font-size:14.1111px;line-height:1.25;font-family:sans-serif;letter-spacing:0px;fill:#ffffff;stroke-width:0.264583"
       x="1920.6132"
       y="233.97157"
       id="text2029-78-8"><tspan
         sodipodi:role="line"
         id="tspan2027-06-3"
         style="font-size:14.1111px;fill:#ffffff;stroke-width:0.264583"
         x="1920.6132"
         y="233.97157">Iran</tspan></text>
    <text
       xml:space="preserve"
       style="font-size:14.1111px;line-height:1.25;font-family:sans-serif;letter-spacing:0px;fill:#ffffff;stroke-width:0.264583"
       x="1716.5946"
       y="235.98639"
       id="text2029-78"><tspan
         sodipodi:role="line"
         id="tspan2027-06"
         style="font-size:14.1111px;fill:#ffffff;stroke-width:0.264583"
         x="1716.5946"
         y="235.98639">Israel</tspan></text>
    <text
       xml:space="preserve"
       style="font-size:14.1111px;line-height:1.25;font-family:sans-serif;letter-spacing:0px;fill:#ffffff;stroke-width:0.264583"
       x="0.67172325"
       y="232.83333"
       id="text2029"><tspan
         sodipodi:role="line"
         id="tspan2027"
         style="font-size:14.1111px;fill:#ffffff;stroke-width:0.264583"
         x="0.67172325"
         y="232.83333">Argentina</tspan></text>
    <text
       xml:space="preserve"
       style="font-size:7.05556px;line-height:1.25;font-family:sans-serif;letter-spacing:0px;stroke-width:0.264583"
       x="127"
       y="232.83333"
       id="text6169"><tspan
         sodipodi:role="line"
         id="tspan6167"
         style="stroke-width:0.264583"
         x="127"
         y="232.83333" /></text>
    <text
       xml:space="preserve"
       style="font-size:7.05556px;line-height:1.25;font-family:sans-serif;letter-spacing:0px;stroke-width:0.264583"
       x="1968.5"
       y="232.83333"
       id="text18984"><tspan
         sodipodi:role="line"
         id="tspan18982"
         style="stroke-width:0.264583"
         x="1968.5"
         y="232.83333" /></text>
  </g>
</svg>
